<svg xmlns="http://www.w3.org/2000/svg" xmlns:xlink="http://www.w3.org/1999/xlink" width="1019.515" height="378.515" viewBox="0 0 1019.515 378.515">
  <defs>
    <style>
      .cls-1, .cls-10, .cls-11, .cls-3 {
        fill: none;
      }

      .cls-2, .cls-6 {
        fill: #fff;
      }

      .cls-12, .cls-2, .cls-3, .cls-6 {
        stroke: #26bfcf;
      }

      .cls-10, .cls-2, .cls-3 {
        stroke-linecap: round;
      }

      .cls-10, .cls-2, .cls-3, .cls-6 {
        stroke-width: 20px;
      }

      .cls-4, .cls-7, .cls-8, .cls-9 {
        fill: #889bc6;
      }

      .cls-4 {
        font-size: 81px;
      }

      .cls-4, .cls-7, .cls-8 {
        font-family: SegoeUI-Bold, Segoe UI;
        font-weight: 700;
      }

      .cls-5 {
        clip-path: url(#clip-path);
      }

      .cls-6 {
        stroke-linejoin: round;
      }

      .cls-10, .cls-7, .cls-9 {
        stroke: #889bc6;
      }

      .cls-7, .cls-8 {
        font-size: 145px;
      }

      .cls-11 {
        stroke: #fff;
        stroke-width: 10px;
      }

      .cls-12 {
        fill: #26bfcf;
      }

      .cls-13 {
        stroke: none;
      }
    </style>
    <clipPath id="clip-path">
      <rect class="cls-1" width="85" height="216"/>
    </clipPath>
  </defs>
  <g id="Group_1" data-name="Group 1" transform="translate(-35 -276.5)">
    <g id="Rectangle_1" data-name="Rectangle 1" class="cls-2" transform="translate(111 344)">
      <rect class="cls-13" width="307" height="310" rx="16"/>
      <rect class="cls-1" x="10" y="10" width="287" height="290" rx="6"/>
    </g>
    <line id="Line_1" data-name="Line 1" class="cls-3" x2="623" transform="translate(421.5 458.5)"/>
    <text id="QQ_Investments" data-name="QQ Investments" class="cls-4" transform="translate(429 546)"><tspan x="0" y="0">QQ Investments</tspan></text>
    <line id="Line_2" data-name="Line 2" class="cls-3" x2="655" y2="1" transform="translate(389.5 644)"/>
    <text id="INC" class="cls-4" transform="translate(647 621)"><tspan x="0" y="0">INC</tspan></text>
    <g id="Repeat_Grid_1" data-name="Repeat Grid 1" class="cls-5" transform="translate(46 438)">
      <g transform="translate(-66 -438)">
        <g id="Rectangle_2" data-name="Rectangle 2" class="cls-6" transform="translate(66 438)">
          <rect class="cls-13" width="152" height="216" rx="19"/>
          <rect class="cls-1" x="10" y="10" width="132" height="196" rx="9"/>
        </g>
      </g>
    </g>
    <line id="Line_3" data-name="Line 3" class="cls-3" y1="98" transform="translate(408 286.5)"/>
    <text id="Q" class="cls-7" transform="matrix(-1, 0, 0, 1, 399, 498)"><tspan x="0" y="0">Q</tspan></text>
    <text id="Q-2" data-name="Q" class="cls-8" transform="translate(139 498)"><tspan x="0" y="0">Q</tspan></text>
    <g id="Ellipse_1" data-name="Ellipse 1" class="cls-9" transform="translate(187 439)">
      <circle class="cls-13" cx="10" cy="10" r="10"/>
      <circle class="cls-1" cx="10" cy="10" r="9.5"/>
    </g>
    <g id="Ellipse_2" data-name="Ellipse 2" class="cls-9" transform="translate(332 439)">
      <circle class="cls-13" cx="10" cy="10" r="10"/>
      <circle class="cls-1" cx="10" cy="10" r="9.5"/>
    </g>
    <path id="Path_1" data-name="Path 1" class="cls-10" d="M0,0S41.3,41.938,82.552,41.938,165,0,165,0" transform="translate(187.5 549.5)"/>
    <line id="Line_4" data-name="Line 4" class="cls-11" y2="176" transform="translate(131 458)"/>
    <g id="Ellipse_3" data-name="Ellipse 3" class="cls-12" transform="translate(35 476)">
      <ellipse class="cls-13" cx="15" cy="23.5" rx="15" ry="23.5"/>
      <ellipse class="cls-1" cx="15" cy="23.5" rx="14.5" ry="23"/>
    </g>
    <g id="Ellipse_4" data-name="Ellipse 4" class="cls-12" transform="translate(35 550)">
      <ellipse class="cls-13" cx="15" cy="23.5" rx="15" ry="23.5"/>
      <ellipse class="cls-1" cx="15" cy="23.5" rx="14.5" ry="23"/>
    </g>
  </g>
</svg>
