<svg xmlns="http://www.w3.org/2000/svg" width="900" height="356.828" viewBox="0 0 900 356.828">
  <defs>
    <style>
      .cls-1 {
        fill: #0277bd;
      }

      .cls-2 {
        fill: #889bc6;
        font-size: 81px;
        font-family: SegoeUI-Bold, Segoe UI;
        font-weight: 700;
      }

      .cls-3, .cls-4 {
        fill: none;
      }

      .cls-3 {
        stroke: #fff;
        stroke-width: 10px;
      }

      .cls-4 {
        stroke: #26bfcf;
        stroke-linecap: round;
        stroke-width: 20px;
      }

      .cls-5 {
        fill: #01579b;
      }

      .cls-6 {
        fill: #eceff1;
      }
    </style>
  </defs>
  <g id="thumb-up" transform="translate(5 9.013)">
    <rect id="Rectangle_1" data-name="Rectangle 1" class="cls-1" width="78.704" height="135.742" transform="translate(5.622 118.774)"/>
    <text id="QQ_Investments" data-name="QQ Investments" class="cls-2" transform="translate(286 144.815)"><tspan x="0" y="0">QQ Investments</tspan></text>
    <text id="INC" class="cls-2" transform="translate(506 236.815)"><tspan x="0" y="0">INC</tspan></text>
    <line id="Line_4" data-name="Line 4" class="cls-3" y2="176" transform="translate(0 171.815)"/>
    <path id="Path_2" data-name="Path 2" class="cls-4" d="M0,0" transform="translate(278.284 -9.013)"/>
    <path id="Path_3" data-name="Path 3" class="cls-5" d="M84.326,371.054H5.622A5.639,5.639,0,0,1,0,365.4V229.656A5.639,5.639,0,0,1,5.622,224h78.7a5.639,5.639,0,0,1,5.622,5.656V365.4A5.639,5.639,0,0,1,84.326,371.054ZM11.243,359.742H78.7V235.312H11.243v124.43Z" transform="translate(0 -110.882)"/>
    <path id="Path_4" data-name="Path 4" class="cls-6" d="M160,247.569a58.03,58.03,0,0,0,33.73,11.312h104a19.775,19.775,0,0,0,13.492-34.162,19.708,19.708,0,0,0,11.244-33.936,19.7,19.7,0,0,0,6.746-37.114,22.7,22.7,0,0,0,7.239-31.155,22.457,22.457,0,0,0-19.045-10.688H238.7a181.475,181.475,0,0,0,11.243-50.9c0-21.21-18.271-39.592-28.109-39.592a29.28,29.28,0,0,0-16.865,5.656V66.58l-33.73,73.527L160,145.763Z" transform="translate(-75.674 -15.677)"/>
    <path id="Path_5" data-name="Path 5" class="cls-5" d="M292.687,259.527h-104a62.852,62.852,0,0,1-37.711-12.963,5.674,5.674,0,0,1-1.642-4V140.753a5.659,5.659,0,0,1,3.1-5.056l9.478-4.774,32.392-70.586V21.979a5.669,5.669,0,0,1,2.1-4.423,35.142,35.142,0,0,1,20.384-6.889c13.009,0,33.73,20.712,33.73,45.247a163.809,163.809,0,0,1-8.995,45.247h70.834a28.27,28.27,0,0,1,20.8,47.238,25.342,25.342,0,0,1-6.577,40.44,25.418,25.418,0,0,1-11.244,33.936,25.459,25.459,0,0,1-22.654,36.752ZM160.577,239.969a57.664,57.664,0,0,0,28.109,8.246h104a14.1,14.1,0,0,0,9.613-24.377,5.68,5.68,0,0,1-.243-7.995,5.607,5.607,0,0,1,3.459-1.744,14.042,14.042,0,0,0,8.028-24.2,5.68,5.68,0,0,1-.243-7.995,5.607,5.607,0,0,1,3.459-1.745,14.037,14.037,0,0,0,4.756-26.481,5.671,5.671,0,0,1-.371-9.841,17.028,17.028,0,0,0,5.394-23.374,16.843,16.843,0,0,0-14.175-7.993h-78.7a5.661,5.661,0,0,1-5.25-7.669,176.778,176.778,0,0,0,10.872-48.89c0-18.529-16.326-33.936-22.487-33.936a23.572,23.572,0,0,0-11.243,3.065V61.57a5.744,5.744,0,0,1-.517,2.375L171.3,137.472a5.642,5.642,0,0,1-2.586,2.681l-8.14,4.1v95.721Z" transform="translate(-70.629 -10.667)"/>
  </g>
</svg>
