<svg xmlns="http://www.w3.org/2000/svg" width="1033" height="311" viewBox="0 0 1033 311">
  <defs>
    <style>
      .cls-1, .cls-2, .cls-8 {
        fill: #003675;
      }

      .cls-1, .cls-4, .cls-5 {
        stroke: #003675;
      }

      .cls-3, .cls-4, .cls-5 {
        fill: #fff;
      }

      .cls-5 {
        font-size: 80px;
        font-family: SegoeUI-Bold, Segoe UI;
        font-weight: 700;
      }

      .cls-6, .cls-8 {
        stroke: none;
      }

      .cls-7 {
        fill: none;
      }
    </style>
  </defs>
  <g id="Group_1" data-name="Group 1" transform="translate(-20 -588)">
    <g id="Rectangle_1" data-name="Rectangle 1" class="cls-1" transform="translate(20 806)">
      <rect class="cls-6" width="1033" height="54"/>
      <rect class="cls-7" x="0.5" y="0.5" width="1032" height="53"/>
    </g>
    <g id="Rectangle_2" data-name="Rectangle 2" class="cls-1" transform="matrix(0.848, 0.53, -0.53, 0.848, 66.209, 732.041)">
      <rect class="cls-6" width="60" height="87.2"/>
      <rect class="cls-7" x="0.5" y="0.5" width="59" height="86.2"/>
    </g>
    <g id="Rectangle_3" data-name="Rectangle 3" class="cls-1" transform="translate(340.4 732.05) rotate(90)">
      <rect class="cls-6" width="106" height="274.2"/>
      <rect class="cls-7" x="0.5" y="0.5" width="105" height="273.2"/>
    </g>
    <g id="Path_3" data-name="Path 3" class="cls-2" transform="translate(370.235 590.05) rotate(90)">
      <path class="cls-6" d="M 148.053955078125 216.2516479492188 C 143.9595336914062 216.2516479492188 129.0624542236328 215.8564300537109 109.2737808227539 210.7712249755859 C 97.92806243896484 207.8556518554688 86.89786529541016 203.8817596435547 76.48961639404297 198.9600067138672 C 63.76322555541992 192.9420623779297 51.86608505249023 185.4516143798828 41.12866973876953 176.6967315673828 C 35.12981033325195 171.8055419921875 29.68119812011719 165.2974548339844 24.93416976928711 157.3533172607422 C 20.60983657836914 150.1165618896484 16.77091979980469 141.5272521972656 13.52408695220947 131.823974609375 C 8.048253059387207 115.4591751098633 4.135225772857666 95.66986846923828 1.893753290176392 73.00581359863281 C -0.1017188876867294 52.8290901184082 -0.3748300075531006 34.06453704833984 -0.2525244355201721 21.87598037719727 C -0.1374200582504272 10.40363597869873 0.3397394418716431 2.44891095161438 0.4672566950321198 0.5000075101852417 L 148.5 0.5000075101852417 L 148.5 216.2498474121094 C 148.3745422363281 216.2509002685547 148.2255401611328 216.2516479492188 148.053955078125 216.2516479492188 Z"/>
      <path class="cls-8" d="M 0.9363555908203125 1 C 0.7771759033203125 3.549758911132812 0.3544158935546875 11.19023132324219 0.247314453125 21.89547729492188 C 0.1254730224609375 34.07192993164062 0.3988037109375 52.81716918945312 2.392730712890625 72.970703125 C 4.631057739257812 95.59478759765625 8.536468505859375 115.3447570800781 14.00047302246094 131.6719818115234 C 17.23583984375 141.3396759033203 21.05939483642578 149.8947296142578 25.36497497558594 157.0995941162109 C 30.08169555664062 164.9924011230469 35.49166870117188 171.4554443359375 41.44458770751953 176.3092346191406 C 52.15072631835938 185.0385589599609 64.01347351074219 192.5073089599609 76.70333862304688 198.5079803466797 C 87.0830078125 203.4162292480469 98.08314514160156 207.3792572021484 109.3982238769531 210.2869567871094 C 129.0445861816406 215.3355865478516 143.8453216552734 215.7481384277344 148 215.7516174316406 L 148 1 L 0.9363555908203125 1 M 0 0 L 149 0 L 149 216.7421722412109 C 149 216.7421722412109 148.6747589111328 216.7516479492188 148.0539398193359 216.7516479492188 C 140.4051666259766 216.7516479492188 87.70417022705078 215.3176727294922 40.81266784667969 177.0842590332031 C -9.88482666015625 135.74755859375 0 0 0 0 Z"/>
    </g>
    <g id="Rectangle_5" data-name="Rectangle 5" class="cls-1" transform="translate(182.603 713.273) rotate(81)">
      <rect class="cls-6" width="106" height="118.2"/>
      <rect class="cls-7" x="0.5" y="0.5" width="105" height="117.2"/>
    </g>
    <g id="Path_4" data-name="Path 4" class="cls-3" transform="translate(190.905 655)">
      <path class="cls-6" d="M -17.70706367492676 60.80659484863281 L -18.07914733886719 59.92641448974609 C -18.04519462585449 59.89798355102539 -17.95062637329102 59.83200454711914 -17.80518341064453 59.83200454711914 C -17.80483627319336 59.83200454711914 -17.80450630187988 59.83200454711914 -17.80415916442871 59.83200454711914 C -17.8032054901123 59.83200454711914 -17.80224990844727 59.83201217651367 -17.80129623413086 59.8320198059082 L -17.45275497436523 60.65652084350586 C -17.52882194519043 60.74108505249023 -17.62629890441895 60.79166793823242 -17.70706367492676 60.80659484863281 Z M 61.59549713134766 59.82897567749023 C 57.14748764038086 59.81260299682617 24.28343772888184 59.69443893432617 2.387730598449707 59.69443893432617 C -8.251489639282227 59.69443893432617 -14.61111927032471 59.72100830078125 -16.9073314666748 59.77542495727539 C -16.07779121398926 57.83517074584961 -13.923415184021 51.51282501220703 -7.569947242736816 29.80353736877441 C -3.631784200668335 16.34713172912598 0.191718578338623 2.865896224975586 0.8616889715194702 0.5000038743019104 L 61.59549713134766 0.5000038743019104 L 61.59549713134766 59.82897567749023 Z"/>
      <path class="cls-8" d="M 1.239707946777344 1.000003814697266 C 0.3452072143554688 4.156383514404297 -3.319927215576172 17.06163787841797 -7.090084075927734 29.9439697265625 C -9.625862121582031 38.60853576660156 -11.71261596679688 45.56866073608398 -13.29239654541016 50.63100433349609 C -14.76457214355469 55.34857940673828 -15.62241744995117 57.87522888183594 -16.15616226196289 59.26052474975586 C -14.0369758605957 59.2276611328125 -9.156925201416016 59.19443893432617 2.381504058837891 59.19443893432617 L 2.387737274169922 59.19443893432617 C 23.59709167480469 59.1944465637207 55.09683227539062 59.30530548095703 61.09550476074219 59.3271484375 L 61.09550476074219 1.000003814697266 L 1.239707946777344 1.000003814697266 M 0.4835472106933594 3.814697265625e-06 L 62.09550476074219 3.814697265625e-06 L 62.09550476074219 60.33083724975586 C 62.09550476074219 60.33083724975586 26.06478691101074 60.19445037841797 2.387741088867188 60.19443130493164 C -8.600994110107422 60.19442367553711 -16.92551040649414 60.22379684448242 -17.75820159912109 60.30980682373047 C -16.19153594970703 58.99831008911133 0.4835472106933594 3.814697265625e-06 0.4835472106933594 3.814697265625e-06 Z M -17.75820159912109 60.30980682373047 C -17.77584457397461 60.3245735168457 -17.79146575927734 60.33199691772461 -17.80523300170898 60.33199691772461 C -17.80833435058594 60.33199691772461 -17.81141662597656 60.33160400390625 -17.8143196105957 60.33083724975586 C -17.84212875366211 60.3234748840332 -17.82275772094727 60.31647491455078 -17.75820159912109 60.30980682373047 Z"/>
    </g>
    <g id="Path_5" data-name="Path 5" class="cls-2" transform="translate(216.905 691)">
      <path class="cls-6" d="M -17.70706367492676 60.80659484863281 L -18.07914733886719 59.92641448974609 C -18.04519462585449 59.89798355102539 -17.95062637329102 59.83200454711914 -17.80518341064453 59.83200454711914 C -17.80483627319336 59.83200454711914 -17.80450630187988 59.83200454711914 -17.80415916442871 59.83200454711914 C -17.8032054901123 59.83200454711914 -17.80224990844727 59.83201217651367 -17.80129623413086 59.8320198059082 L -17.45275497436523 60.65652084350586 C -17.52882194519043 60.74108505249023 -17.62629890441895 60.79166793823242 -17.70706367492676 60.80659484863281 Z M 61.59549713134766 59.82897567749023 C 57.14748764038086 59.81260299682617 24.28343772888184 59.69443893432617 2.387730598449707 59.69443893432617 C -8.251489639282227 59.69443893432617 -14.61111927032471 59.72100830078125 -16.9073314666748 59.77542495727539 C -16.07779121398926 57.83517074584961 -13.923415184021 51.51282501220703 -7.569947242736816 29.80353736877441 C -3.631784200668335 16.34713172912598 0.191718578338623 2.865896224975586 0.8616889715194702 0.5000038743019104 L 61.59549713134766 0.5000038743019104 L 61.59549713134766 59.82897567749023 Z"/>
      <path class="cls-8" d="M 1.239707946777344 1.000003814697266 C 0.3452072143554688 4.156383514404297 -3.319927215576172 17.06163787841797 -7.090084075927734 29.9439697265625 C -9.625862121582031 38.60853576660156 -11.71261596679688 45.56866073608398 -13.29239654541016 50.63100433349609 C -14.76457214355469 55.34857940673828 -15.62241744995117 57.87522888183594 -16.15616226196289 59.26052474975586 C -14.0369758605957 59.2276611328125 -9.156925201416016 59.19443893432617 2.381504058837891 59.19443893432617 L 2.387737274169922 59.19443893432617 C 23.59709167480469 59.1944465637207 55.09683227539062 59.30530548095703 61.09550476074219 59.3271484375 L 61.09550476074219 1.000003814697266 L 1.239707946777344 1.000003814697266 M 0.4835472106933594 3.814697265625e-06 L 62.09550476074219 3.814697265625e-06 L 62.09550476074219 60.33083724975586 C 62.09550476074219 60.33083724975586 26.06478691101074 60.19445037841797 2.387741088867188 60.19443130493164 C -8.600994110107422 60.19442367553711 -16.92551040649414 60.22379684448242 -17.75820159912109 60.30980682373047 C -16.19153594970703 58.99831008911133 0.4835472106933594 3.814697265625e-06 0.4835472106933594 3.814697265625e-06 Z M -17.75820159912109 60.30980682373047 C -17.77584457397461 60.3245735168457 -17.79146575927734 60.33199691772461 -17.80523300170898 60.33199691772461 C -17.80833435058594 60.33199691772461 -17.81141662597656 60.33160400390625 -17.8143196105957 60.33083724975586 C -17.84212875366211 60.3234748840332 -17.82275772094727 60.31647491455078 -17.75820159912109 60.30980682373047 Z"/>
    </g>
    <g id="Ellipse_1" data-name="Ellipse 1" class="cls-1" transform="translate(421 822)">
      <circle class="cls-6" cx="38.5" cy="38.5" r="38.5"/>
      <circle class="cls-7" cx="38.5" cy="38.5" r="38"/>
    </g>
    <g id="Ellipse_2" data-name="Ellipse 2" class="cls-4" transform="translate(444 845)">
      <circle class="cls-6" cx="15.5" cy="15.5" r="15.5"/>
      <circle class="cls-7" cx="15.5" cy="15.5" r="15"/>
    </g>
    <g id="Ellipse_3" data-name="Ellipse 3" class="cls-1" transform="translate(108 822)">
      <circle class="cls-6" cx="38.5" cy="38.5" r="38.5"/>
      <circle class="cls-7" cx="38.5" cy="38.5" r="38"/>
    </g>
    <g id="Ellipse_4" data-name="Ellipse 4" class="cls-4" transform="translate(131 845)">
      <circle class="cls-6" cx="15.5" cy="15.5" r="15.5"/>
      <circle class="cls-7" cx="15.5" cy="15.5" r="15"/>
    </g>
    <g id="Ellipse_5" data-name="Ellipse 5" class="cls-1" transform="translate(834 822)">
      <circle class="cls-6" cx="38.5" cy="38.5" r="38.5"/>
      <circle class="cls-7" cx="38.5" cy="38.5" r="38"/>
    </g>
    <g id="Ellipse_6" data-name="Ellipse 6" class="cls-4" transform="translate(857 845)">
      <circle class="cls-6" cx="15.5" cy="15.5" r="15.5"/>
      <circle class="cls-7" cx="15.5" cy="15.5" r="15"/>
    </g>
    <g id="Ellipse_7" data-name="Ellipse 7" class="cls-1" transform="translate(922 822)">
      <circle class="cls-6" cx="38.5" cy="38.5" r="38.5"/>
      <circle class="cls-7" cx="38.5" cy="38.5" r="38"/>
    </g>
    <g id="Ellipse_8" data-name="Ellipse 8" class="cls-4" transform="translate(945 845)">
      <circle class="cls-6" cx="15.5" cy="15.5" r="15.5"/>
      <circle class="cls-7" cx="15.5" cy="15.5" r="15"/>
    </g>
    <g id="Rectangle_6" data-name="Rectangle 6" class="cls-1" transform="translate(395 589)">
      <rect class="cls-6" width="658" height="196"/>
      <rect class="cls-7" x="0.5" y="0.5" width="657" height="195"/>
    </g>
    <text id="QQ_Investments_INC" data-name="QQ Investments
INC" class="cls-5" transform="translate(721.5 675)"><tspan x="-300.313" y="0">QQ Investments</tspan><tspan x="-69.238" y="85">INC</tspan></text>
  </g>
</svg>
